<mxfile host="65bd71144e">
    <diagram id="C5RBs43oDa-KdzZeNtuy" name="Page-1">
        <mxGraphModel dx="683" dy="396" grid="0" gridSize="10" guides="1" tooltips="1" connect="1" arrows="1" fold="1" page="1" pageScale="1" pageWidth="827" pageHeight="1169" math="0" shadow="0">
            <root>
                <mxCell id="WIyWlLk6GJQsqaUBKTNV-0"/>
                <mxCell id="WIyWlLk6GJQsqaUBKTNV-1" parent="WIyWlLk6GJQsqaUBKTNV-0"/>
                <mxCell id="107" value="Node Flow" style="swimlane;strokeWidth=1;fontSize=12;startSize=23;fontFamily=프리텐다드;html=1;fontSource=https%3A%2F%2Fcdn.jsdelivr.net%2Fgh%2FProject-Noonnu%2Fnoonfonts_2107%401.1%2FPretendard-Regular.woff;" vertex="1" parent="WIyWlLk6GJQsqaUBKTNV-1">
                    <mxGeometry x="59" y="70" width="710" height="593" as="geometry"/>
                </mxCell>
                <mxCell id="108" style="edgeStyle=none;html=1;exitX=0.5;exitY=1;exitDx=0;exitDy=0;entryX=0.5;entryY=0;entryDx=0;entryDy=0;" edge="1" parent="107" source="109" target="111">
                    <mxGeometry relative="1" as="geometry"/>
                </mxCell>
                <mxCell id="109" value="시작" style="rounded=0;whiteSpace=wrap;html=1;fontFamily=프리텐다드;fontSource=https%3A%2F%2Fcdn.jsdelivr.net%2Fgh%2FProject-Noonnu%2Fnoonfonts_2107%401.1%2FPretendard-Regular.woff;" vertex="1" parent="107">
                    <mxGeometry x="141" y="43" width="120" height="30" as="geometry"/>
                </mxCell>
                <mxCell id="121" style="edgeStyle=none;html=1;exitX=0.5;exitY=1;exitDx=0;exitDy=0;entryX=0.5;entryY=0;entryDx=0;entryDy=0;" edge="1" parent="107" source="111" target="112">
                    <mxGeometry relative="1" as="geometry"/>
                </mxCell>
                <mxCell id="111" value="RF avil?" style="rhombus;whiteSpace=wrap;html=1;fontFamily=프리텐다드;fontSource=https%3A%2F%2Fcdn.jsdelivr.net%2Fgh%2FProject-Noonnu%2Fnoonfonts_2107%401.1%2FPretendard-Regular.woff;" vertex="1" parent="107">
                    <mxGeometry x="142" y="99" width="117" height="41" as="geometry"/>
                </mxCell>
                <mxCell id="117" value="" style="edgeStyle=none;html=1;" edge="1" parent="107" source="112" target="115">
                    <mxGeometry relative="1" as="geometry"/>
                </mxCell>
                <mxCell id="112" value="RF read data" style="rounded=0;whiteSpace=wrap;html=1;fontFamily=프리텐다드;fontSource=https%3A%2F%2Fcdn.jsdelivr.net%2Fgh%2FProject-Noonnu%2Fnoonfonts_2107%401.1%2FPretendard-Regular.woff;" vertex="1" parent="107">
                    <mxGeometry x="141" y="165" width="120" height="30" as="geometry"/>
                </mxCell>
                <mxCell id="115" value="데이터 파싱 함수 호출" style="rounded=0;whiteSpace=wrap;html=1;fontFamily=프리텐다드;fontSource=https%3A%2F%2Fcdn.jsdelivr.net%2Fgh%2FProject-Noonnu%2Fnoonfonts_2107%401.1%2FPretendard-Regular.woff;" vertex="1" parent="107">
                    <mxGeometry x="141" y="221" width="120" height="30" as="geometry"/>
                </mxCell>
                <mxCell id="113" style="edgeStyle=none;html=1;exitX=0;exitY=0.5;exitDx=0;exitDy=0;" edge="1" parent="WIyWlLk6GJQsqaUBKTNV-1" source="111">
                    <mxGeometry relative="1" as="geometry">
                        <mxPoint x="260.57142857142844" y="152.9142717633929" as="targetPoint"/>
                        <Array as="points">
                            <mxPoint x="110" y="190"/>
                            <mxPoint x="110" y="153"/>
                        </Array>
                    </mxGeometry>
                </mxCell>
            </root>
        </mxGraphModel>
    </diagram>
</mxfile>